<svg version="1.0" xmlns="http://www.w3.org/2000/svg"
 width="1200.000000pt" height="1200.000000pt" viewBox="0 0 1200.000000 1200.000000"
 preserveAspectRatio="xMidYMid meet">

<g transform="translate(0.000000,1200.000000) scale(0.100000,-0.100000)"
fill="#000000" stroke="none">
<path d="M0 6000 l0 -6000 6000 0 6000 0 0 6000 0 6000 -6000 0 -6000 0 0
-6000z m6223 2944 c307 -178 629 -364 867 -501 118 -69 301 -174 407 -235
l192 -110 0 -972 0 -973 -837 -483 c-460 -266 -844 -484 -852 -484 -15 0 -124
62 -965 549 -220 127 -473 273 -561 324 l-162 94 0 972 c1 964 1 972 21 984
11 7 110 65 221 128 111 64 323 187 471 273 149 86 383 222 520 301 138 78
295 169 350 201 55 32 106 56 113 53 7 -2 103 -57 215 -121z m-1203 -4781 l0
-187 28 26 c49 46 92 62 167 62 115 0 180 -47 211 -151 10 -34 14 -114 14
-310 l0 -263 -90 0 -90 0 0 240 c0 277 -5 301 -66 326 -49 20 -113 11 -148
-21 l-26 -24 0 -261 0 -260 -95 0 -95 0 0 505 0 505 95 0 95 0 0 -187z m4370
0 l0 -187 28 26 c49 46 92 62 167 62 115 0 180 -47 211 -151 10 -34 14 -114
14 -310 l0 -263 -90 0 -90 0 0 240 c0 277 -5 301 -66 326 -49 20 -113 11 -148
-21 l-26 -24 0 -261 0 -260 -95 0 -95 0 0 505 0 505 95 0 95 0 0 -187z m-4850
-23 l0 -90 60 0 60 0 0 -70 0 -70 -60 0 -60 0 0 -193 c0 -228 1 -232 79 -231
l51 1 0 -68 c0 -75 2 -73 -80 -84 -54 -8 -133 9 -170 35 -59 42 -69 92 -70
353 l0 187 -50 0 -50 0 0 70 0 70 50 0 50 0 0 90 0 90 95 0 95 0 0 -90z
m-1872 -101 c93 -45 142 -146 150 -309 10 -221 -67 -359 -217 -391 -68 -14
-148 1 -190 37 -16 13 -32 24 -35 24 -3 0 -6 -74 -6 -165 l0 -165 -90 0 -90 0
0 40 c-1 22 -1 222 -1 445 0 223 0 425 1 450 l0 45 85 0 85 0 0 -37 0 -37 28
26 c74 70 181 84 280 37z m716 25 c13 -5 16 -23 16 -95 l0 -88 -47 3 c-63 4
-104 -8 -137 -40 l-26 -27 0 -238 0 -239 -90 0 -90 0 0 355 0 355 85 0 85 0 0
-28 c0 -44 10 -45 47 -7 43 44 113 66 157 49z m593 -30 c115 -56 133 -109 133
-394 0 -149 4 -220 14 -254 l14 -47 -96 3 -95 3 -12 34 c-10 30 -12 32 -25 16
-52 -62 -197 -80 -286 -34 -70 36 -107 92 -112 172 -10 161 112 247 351 247
l57 0 0 46 c0 63 -40 104 -100 104 -53 0 -98 -24 -106 -55 -6 -24 -8 -25 -101
-25 -93 0 -94 0 -88 23 4 12 9 31 12 42 18 62 105 124 203 145 72 15 178 3
237 -26z m2120 0 c115 -56 133 -109 133 -394 0 -149 4 -220 14 -254 l14 -47
-96 3 -95 3 -12 34 c-10 30 -12 32 -25 16 -52 -62 -197 -80 -286 -34 -70 36
-107 92 -112 172 -10 161 112 247 351 247 l57 0 0 46 c0 63 -40 104 -100 104
-53 0 -98 -24 -106 -55 -6 -24 -8 -25 -101 -25 -93 0 -94 0 -88 23 4 12 9 31
12 42 18 62 105 124 203 145 72 15 178 3 237 -26z m801 21 c37 -11 60 -27 86
-56 32 -38 35 -39 45 -22 17 33 85 72 144 84 111 23 203 -16 250 -105 21 -39
22 -54 25 -328 l3 -288 -90 0 -90 0 -3 258 c-3 288 -5 294 -71 314 -52 16
-113 -5 -142 -47 -19 -29 -20 -44 -18 -278 l2 -247 -94 0 -95 0 0 253 c0 281
-3 293 -62 315 -49 19 -103 8 -140 -28 l-28 -28 0 -256 0 -256 -90 0 -90 0 0
355 0 355 85 0 85 0 0 -35 c0 -40 9 -44 36 -14 24 26 62 47 111 58 57 13 84
13 141 -4z m1200 -11 c119 -49 182 -162 182 -326 l0 -78 -226 0 -226 0 7 -27
c32 -131 203 -176 309 -82 l34 29 41 -47 c22 -27 41 -53 41 -60 0 -18 -76 -73
-128 -93 -157 -59 -333 -16 -423 103 -45 60 -58 101 -66 197 -12 156 47 295
153 360 78 49 217 60 302 24z m763 1 c84 -29 158 -114 159 -182 0 -22 -3 -23
-94 -23 l-93 0 -6 30 c-9 41 -50 65 -111 64 -41 0 -53 -5 -73 -28 -30 -35 -27
-72 8 -98 14 -11 69 -30 122 -43 109 -27 160 -51 199 -92 82 -87 58 -224 -51
-290 -62 -37 -167 -58 -244 -48 -118 16 -224 90 -247 174 -17 62 -18 61 78 61
l88 0 9 -32 c15 -49 56 -73 125 -73 72 0 113 30 108 79 -4 41 -38 62 -147 91
-52 14 -117 38 -144 53 -177 96 -117 327 96 372 55 12 161 4 218 -15z"/>
<path d="M5900 8848 c-47 -28 -173 -101 -280 -163 -107 -62 -310 -179 -450
-260 -288 -166 -641 -370 -682 -394 l-28 -16 0 -890 0 -891 168 -96 c193 -111
636 -367 927 -536 374 -216 437 -252 446 -252 5 0 78 40 162 89 224 130 1095
634 1314 760 l63 36 0 890 0 890 -208 120 c-114 65 -301 174 -417 241 -696
404 -907 524 -918 523 -7 0 -50 -23 -97 -51z m246 -973 c74 -42 146 -80 159
-85 23 -9 23 -12 18 -82 l-5 -73 153 -84 c85 -46 166 -93 181 -103 l28 -19 2
-166 3 -166 71 -35 70 -36 -1 -176 c0 -96 -4 -180 -8 -187 -10 -16 -295 -173
-315 -173 -9 0 -31 9 -49 19 l-31 20 -206 -115 c-113 -63 -210 -114 -216 -114
-5 0 -102 52 -216 115 l-207 115 -32 -20 c-44 -27 -53 -26 -132 18 -37 22 -99
56 -138 77 -108 58 -101 40 -99 232 1 92 2 173 3 178 0 6 33 28 71 49 l70 37
0 164 0 164 28 19 c15 10 96 57 180 103 l152 84 0 71 0 71 113 63 c61 35 130
73 152 86 22 13 46 23 53 24 7 0 74 -34 148 -75z"/>
<path d="M5901 7825 c-51 -30 -97 -57 -102 -62 -6 -6 34 -33 95 -67 l105 -57
106 57 c58 30 105 59 105 62 0 6 -193 114 -210 118 -3 1 -47 -22 -99 -51z"/>
<path d="M5747 7692 c-2 -4 -3 -58 -3 -121 l1 -114 105 -58 c58 -32 109 -59
113 -59 4 0 6 54 5 121 l-3 121 -107 58 c-60 32 -109 55 -111 52z"/>
<path d="M6138 7638 l-108 -60 0 -120 c0 -140 -13 -134 130 -53 l96 54 -1 115
c0 63 -2 117 -5 119 -3 2 -53 -23 -112 -55z"/>
<path d="M5525 7471 l-140 -78 -1 -114 c0 -63 2 -119 4 -126 2 -7 18 -3 45 13
23 13 51 24 61 24 11 0 81 -34 156 -75 75 -41 142 -75 148 -75 6 0 14 -5 17
-10 8 -12 7 -344 -1 -363 -2 -6 -38 -30 -79 -52 -41 -22 -75 -43 -75 -47 0 -3
77 -49 170 -101 l171 -94 169 94 c94 52 170 98 170 102 0 3 -34 24 -75 46 -47
25 -77 48 -81 60 -2 11 -3 94 -2 184 l3 164 160 88 159 89 52 -30 c35 -20 53
-25 56 -17 2 7 4 63 4 126 l-1 114 -140 78 c-77 43 -143 79 -147 79 -5 0 -8
-29 -8 -64 0 -76 11 -66 -187 -175 l-133 -73 -122 68 c-213 117 -198 104 -198
179 0 36 -3 65 -7 65 -5 0 -71 -36 -148 -79z"/>
<path d="M5391 7066 c-52 -29 -96 -57 -98 -63 -2 -5 34 -29 79 -53 46 -24 92
-49 102 -56 16 -11 31 -6 115 38 53 28 102 56 109 61 9 8 -14 25 -90 68 -57
32 -107 58 -113 58 -5 -1 -53 -25 -104 -53z"/>
<path d="M6392 7061 l-103 -59 58 -32 c32 -18 81 -45 108 -60 l50 -28 108 60
109 60 -107 59 c-58 33 -109 59 -113 59 -4 -1 -53 -27 -110 -59z"/>
<path d="M5240 6821 l0 -119 108 -59 107 -60 3 121 c2 106 1 121 -15 130 -38
23 -194 106 -198 106 -3 0 -5 -54 -5 -119z"/>
<path d="M5633 6882 l-103 -56 0 -123 0 -124 23 12 c12 6 61 34 110 61 l87 50
0 119 c0 66 -3 119 -7 118 -5 -1 -54 -26 -110 -57z"/>
<path d="M6250 6821 l0 -120 43 -24 c23 -13 72 -41 110 -61 l67 -37 0 124 0
123 -101 54 c-56 30 -105 57 -110 58 -5 2 -9 -51 -9 -117z"/>
<path d="M6643 6882 l-103 -57 0 -123 0 -124 43 25 c23 14 72 41 110 62 l67
37 0 119 c0 65 -3 119 -7 119 -5 -1 -54 -27 -110 -58z"/>
<path d="M2434 3906 c-58 -26 -64 -45 -64 -207 0 -167 8 -189 80 -210 56 -17
103 -5 139 36 36 41 46 83 46 190 -1 90 -21 145 -66 178 -34 25 -96 31 -135
13z"/>
<path d="M3780 3663 c-82 -26 -113 -109 -63 -165 34 -38 133 -29 179 17 20 21
24 34 24 90 l0 65 -62 -1 c-35 0 -70 -3 -78 -6z"/>
<path d="M5900 3663 c-82 -26 -113 -109 -63 -165 34 -38 133 -29 179 17 20 21
24 34 24 90 l0 65 -62 -1 c-35 0 -70 -3 -78 -6z"/>
<path d="M7910 3902 c-35 -18 -64 -57 -75 -104 l-7 -28 136 0 136 0 0 28 c0
40 -36 91 -75 108 -45 18 -73 18 -115 -4z"/>
</g>
</svg>
